<?xml version="1.0" encoding="UTF-8" standalone="no"?>
<!-- Created with Inkscape (http://www.inkscape.org/) -->

<svg
   width="1920"
   height="1080"
   viewBox="0 0 507.99999 285.75001"
   version="1.1"
   id="svg5"
   inkscape:version="1.1 (c68e22c387, 2021-05-23)"
   sodipodi:docname="flor.svg"
   xmlns:inkscape="http://www.inkscape.org/namespaces/inkscape"
   xmlns:sodipodi="http://sodipodi.sourceforge.net/DTD/sodipodi-0.dtd"
   xmlns="http://www.w3.org/2000/svg"
   xmlns:svg="http://www.w3.org/2000/svg">
  <sodipodi:namedview
     id="namedview7"
     pagecolor="#ffffff"
     bordercolor="#cccccc"
     borderopacity="1"
     inkscape:pageshadow="0"
     inkscape:pageopacity="1"
     inkscape:pagecheckerboard="false"
     inkscape:document-units="mm"
     showgrid="true"
     units="px"
     inkscape:zoom="0.30390625"
     inkscape:cx="1100.6684"
     inkscape:cy="577.48072"
     inkscape:window-width="1920"
     inkscape:window-height="1009"
     inkscape:window-x="-8"
     inkscape:window-y="-8"
     inkscape:window-maximized="1"
     inkscape:current-layer="g1384" />
  <defs
     id="defs2" />
  <g
     inkscape:label="Capa 1"
     inkscape:groupmode="layer"
     id="layer1">
    <g
       id="g1384"
       transform="matrix(-0.03124383,4.0507303,-4.0507303,-0.03124383,-197.05863,-604.45954)"
       style="stroke:none;stroke-opacity:1">
      <g
         id="g9022"
         transform="matrix(0.35277777,0,0,-0.35277777,209.19024,-97.169704)"
         style="stroke:none;stroke-opacity:1">
        <path
           d="m 0,0 c 1.359,-2.704 2.427,-5.548 3.217,-8.468 -0.29,0.545 -0.595,1.078 -0.915,1.592 -2.357,3.798 -5.422,7.227 -8.559,10.398 -5.929,5.994 -12.82,11.034 -20.33,14.865 -0.409,0.209 -0.828,0.397 -1.24,0.599 1.244,-0.217 2.494,-0.399 3.747,-0.523 0.736,-0.155 1.474,-0.302 2.214,-0.411 0.101,-0.153 0.274,-0.261 0.524,-0.238 0.342,0.03 0.682,0.077 1.023,0.121 1.017,-0.37 2.025,-0.767 3.018,-1.21 3.767,-1.682 7.257,-3.957 10.2,-6.858 C -4.2,7.007 -1.827,3.635 0,0 m 4.111,-22.567 c -0.32,-0.932 -0.802,-1.798 -1.453,-2.509 -3.211,7.572 -7.698,14.722 -12.703,21.219 -5.271,6.844 -11.33,13.089 -18.084,18.479 -1.889,1.507 -3.83,2.951 -5.819,4.325 -0.476,0.33 -0.956,0.664 -1.439,0.994 0.849,-0.051 1.696,-0.119 2.542,-0.195 1.348,-0.544 2.687,-1.112 4.003,-1.729 3.711,-1.74 7.279,-3.772 10.697,-6.033 6.88,-4.552 13.248,-10.238 18.266,-16.803 1.624,-2.124 2.987,-4.42 3.851,-6.865 0.686,-3.485 1.324,-7.435 0.139,-10.883 m -3.166,-3.775 c -2.009,-0.917 -4.344,-0.565 -6.38,0.075 -0.295,0.093 -0.587,0.2 -0.879,0.302 -0.433,1.827 -1.337,3.59 -2.103,5.298 -0.825,1.835 -1.694,3.649 -2.607,5.442 -1.791,3.514 -3.729,6.959 -5.784,10.327 -4.147,6.798 -9.074,13.143 -14.496,18.97 -1.335,1.434 -2.692,2.849 -4.09,4.221 1.761,-1.169 3.486,-2.392 5.174,-3.665 3.411,-2.574 6.67,-5.357 9.765,-8.303 6.154,-5.859 11.629,-12.499 16.164,-19.685 2.449,-3.881 4.585,-7.938 6.616,-12.051 -0.404,-0.372 -0.858,-0.693 -1.38,-0.931 m -17.513,5.67 c -6.808,4.472 -12.524,10.379 -16.997,17.171 -0.292,0.443 -0.582,0.879 -0.879,1.31 0.972,6.811 0.358,13.795 -2.778,19.963 1.272,-1.181 2.545,-2.362 3.759,-3.601 2.762,-2.819 5.382,-5.778 7.863,-8.846 4.928,-6.094 9.431,-12.588 13.129,-19.504 1.042,-1.949 2.033,-3.925 2.973,-5.924 0.469,-1 0.926,-2.006 1.369,-3.018 0.386,-0.879 0.741,-1.784 1.196,-2.631 -3.392,1.262 -6.64,3.113 -9.635,5.08 M -37.049,-4.52 c -0.148,-1.641 -0.279,-3.287 -0.55,-4.914 -0.062,-0.372 -0.137,-0.741 -0.206,-1.112 -2.73,-8.105 -7.342,-15.946 -14.035,-21.263 0.658,1.012 1.29,2.044 1.925,3.063 1.028,1.649 2.028,3.314 2.99,5.003 1.983,3.482 3.826,7.054 5.332,10.77 2.951,7.279 4.428,15.017 3.66,22.871 -0.079,0.813 -0.195,1.62 -0.328,2.423 1.002,-2.527 1.389,-5.257 1.503,-7.963 0.126,-2.954 -0.024,-5.935 -0.291,-8.878 m -17.209,-29.031 c -3.111,-2.03 -6.671,-3.539 -10.378,-3.661 -0.57,-0.018 -1.146,0.005 -1.716,0.07 5.535,6.317 10.153,13.463 13.952,20.94 3.968,7.808 6.958,16.153 8.762,24.727 0.629,2.988 1.073,5.997 1.38,9.024 1.135,-0.652 2.053,-1.657 2.771,-2.785 1.168,-4.945 1.241,-10.109 0.438,-15.211 -1.205,-7.657 -4.301,-14.957 -8.157,-21.64 -1.064,-1.844 -2.182,-3.657 -3.334,-5.448 -1.192,-1.856 -2.501,-3.649 -3.636,-5.539 -0.098,-0.162 -0.116,-0.329 -0.082,-0.477 m -16.282,-2.011 c -0.774,0.592 -1.383,1.324 -1.865,2.137 2.498,7.764 5.288,15.401 8.868,22.744 3.66,7.507 7.999,14.622 12.845,21.42 1.844,2.588 3.793,5.11 5.808,7.575 0.107,-0.006 0.213,-0.003 0.32,-0.014 0.228,-0.105 0.472,-0.176 0.721,-0.197 0.109,-0.009 0.215,-0.007 0.318,-0.001 0.226,-0.064 0.438,-0.153 0.65,-0.243 -0.922,-6.817 -2.455,-13.573 -4.663,-20.073 -2.798,-8.24 -6.63,-16.204 -11.564,-23.382 -2.709,-3.94 -5.718,-7.665 -8.927,-11.208 -0.899,0.265 -1.755,0.664 -2.511,1.242 m -3.364,6.567 c -0.82,4.878 -0.483,10.062 0.42,14.903 0.921,4.934 2.601,9.725 4.965,14.153 1.13,2.116 2.428,4.131 3.863,6.042 0.272,0.271 0.533,0.552 0.81,0.818 1.52,1.464 3.104,2.865 4.747,4.189 2.601,2.097 5.37,3.96 8.146,5.813 1.634,0.646 3.397,1.288 5.173,1.39 -4.345,-5.104 -8.323,-10.508 -11.89,-16.192 -4.407,-7.022 -8.351,-14.435 -11.491,-22.114 -1.531,-3.747 -2.958,-7.573 -4.132,-11.457 -0.272,0.802 -0.473,1.632 -0.611,2.455 M -88.979,4.884 c -1.942,1.056 -3.729,2.39 -5.373,3.878 5.061,-1.783 10.687,-1.048 15.795,0.376 3.36,0.937 6.655,2.123 9.942,3.286 3.287,1.164 6.564,2.361 9.814,3.629 1.653,0.644 3.336,1.271 5.004,1.934 -3.93,-2.642 -7.47,-5.855 -10.485,-9.517 -0.124,-0.117 -0.255,-0.228 -0.378,-0.346 -0.716,-0.647 -1.461,-1.322 -2.134,-2.053 -0.557,-0.483 -1.125,-0.954 -1.711,-1.401 -0.333,-0.254 -0.673,-0.497 -1.014,-0.741 l -0.1,-0.075 c -6.167,-2.881 -13.401,-2.208 -19.36,1.03 m -7.401,5.879 c -0.187,0.201 -0.387,0.39 -0.568,0.595 -2.282,2.586 -4.782,5.804 -5.204,9.35 7.626,-0.57 15.239,-0.909 22.89,-0.891 3.886,0.008 7.772,0.149 11.644,0.49 3.816,0.337 7.599,0.928 11.399,1.394 3.498,0.43 7.04,0.717 10.572,0.68 -1.285,-0.542 -2.553,-1.122 -3.783,-1.773 -2.735,-0.927 -5.406,-2.081 -8.1,-3.105 -3.219,-1.224 -6.447,-2.425 -9.69,-3.583 -3.176,-1.135 -6.36,-2.265 -9.58,-3.267 -3.156,-0.981 -6.401,-1.781 -9.717,-1.904 -3.277,-0.122 -6.603,0.444 -9.526,1.97 -0.124,0.065 -0.236,0.067 -0.337,0.044 m -4.597,15.116 c 14.594,3.18 29.77,3.188 44.366,-0.007 3.591,-0.786 7.119,-1.806 10.645,-2.834 -6.623,0.479 -13.278,-0.887 -19.855,-1.564 -7.856,-0.808 -15.785,-0.81 -23.656,-0.223 -4.24,0.316 -8.481,0.622 -12.719,0.969 0.105,1.309 0.546,2.539 1.219,3.659 m 3.243,3.657 c 2.845,2.363 6.246,4.035 9.772,5.109 7.161,2.182 14.907,1.797 22.029,-0.325 3.856,-1.149 7.557,-2.78 11.074,-4.727 0.919,-0.509 1.823,-1.04 2.716,-1.588 1.934,-1.463 3.97,-2.787 6.076,-3.98 0.119,-0.08 0.237,-0.161 0.356,-0.241 -2.973,1.176 -6.048,2.094 -9.151,2.858 -3.72,0.917 -7.497,1.638 -11.3,2.113 -7.506,0.939 -15.122,1.049 -22.652,0.327 -3.737,-0.359 -7.441,-0.949 -11.109,-1.739 0.664,0.806 1.41,1.546 2.189,2.193 m -12.889,1.783 c -6.834,-0.634 -13.734,-0.256 -20.458,1.122 -3.138,0.644 -6.888,1.548 -8.497,4.644 -0.105,0.201 -0.192,0.408 -0.27,0.616 8.467,-1.603 17.275,-1.763 25.843,-1.045 8.701,0.729 17.274,2.525 25.542,5.325 4.578,1.55 9.065,3.406 13.331,5.682 0.776,-0.436 1.562,-0.853 2.362,-1.239 -0.245,-0.107 -0.486,-0.217 -0.717,-0.355 -0.43,-0.257 -0.791,-0.602 -1.107,-0.987 -0.889,-0.618 -1.755,-1.27 -2.654,-1.883 -1.38,-0.94 -2.793,-1.831 -4.24,-2.664 -2.985,-1.718 -6.097,-3.215 -9.3,-4.483 -6.345,-2.511 -13.04,-4.102 -19.835,-4.733 m -29.006,10.101 c 0.775,1.4 2.126,2.42 3.379,3.364 1.209,0.909 2.474,1.732 3.763,2.515 5.945,-2.529 12.525,-2.847 18.888,-2.263 7.08,0.65 14.092,2.106 21.098,3.28 2.213,0.371 4.426,0.739 6.639,1.113 2.069,0.35 4.157,0.629 6.178,1.203 1.291,-0.962 2.635,-1.848 4.026,-2.656 -7.686,-3.549 -15.598,-6.413 -23.888,-8.199 -8.427,-1.816 -17.108,-2.64 -25.726,-2.29 -4.886,0.199 -9.719,0.76 -14.55,1.495 -0.121,0.019 -0.222,10e-4 -0.312,-0.032 -0.079,0.837 0.069,1.682 0.505,2.47 m 26.233,12.744 0.1,0.036 c 9.548,-2.551 19.544,-2.711 29.375,-2.603 0.91,0.01 1.821,0.024 2.731,0.037 0.311,-0.206 0.626,-0.407 0.943,-0.605 -1.745,-0.121 -3.468,-0.435 -5.196,-0.709 -1.906,-0.302 -3.811,-0.608 -5.716,-0.912 -3.855,-0.616 -7.711,-1.226 -11.568,-1.827 -6.27,-0.978 -12.653,-1.932 -19.015,-1.441 -3.168,0.244 -6.277,0.907 -9.229,2.068 5.427,3.022 11.44,4.983 17.575,5.956 m -19.726,12.909 c -1.495,1.521 -2.873,3.185 -4.027,4.98 -0.982,1.528 -1.814,3.344 -1.9,5.19 10.368,-10.932 25.54,-15.886 39.925,-18.781 2.305,-0.464 4.618,-0.886 6.934,-1.286 1.795,-0.31 3.622,-0.694 5.449,-0.897 0.932,-1.025 1.974,-1.969 3.083,-2.85 -8.972,-0.114 -18.005,-0.01 -26.797,1.934 -8.318,1.84 -16.629,5.566 -22.667,11.71 m -2.703,15.256 c 1.69,1.025 3.513,1.846 5.379,2.502 -0.128,-0.257 -0.116,-0.58 0.177,-0.812 4.644,-3.682 9.728,-6.899 14.872,-9.828 5.185,-2.952 10.562,-5.581 16.102,-7.798 2.745,-1.099 5.526,-2.149 8.384,-2.921 0.084,-0.156 0.172,-0.311 0.258,-0.467 0.659,-2.167 1.746,-4.089 3.134,-5.803 -1.188,0.237 -2.388,0.428 -3.567,0.648 -1.983,0.371 -3.963,0.754 -5.938,1.165 -3.979,0.827 -7.933,1.774 -11.834,2.917 -7.136,2.091 -14.111,4.936 -20.356,9.013 -3.45,2.252 -6.574,4.879 -9.427,7.848 -0.064,0.067 -0.135,0.109 -0.207,0.145 0.461,1.47 1.627,2.543 3.023,3.391 m 24.067,3.17 c 0.489,-0.625 1.077,-1.204 1.587,-1.771 0.781,-0.869 1.581,-1.719 2.401,-2.552 1.616,-1.642 3.301,-3.216 5.053,-4.712 2.854,-2.437 5.893,-4.678 9.143,-6.556 0.574,-1.898 1.311,-3.744 2.198,-5.525 -2.214,0.886 -4.447,1.722 -6.65,2.636 -2.666,1.106 -5.304,2.29 -7.901,3.55 -5.324,2.583 -10.475,5.516 -15.418,8.769 -2.775,1.825 -5.433,3.796 -8.109,5.761 -0.028,0.02 -0.056,0.023 -0.085,0.039 5.709,1.82 11.986,1.943 17.781,0.361 m 6.968,-2.887 c 3.341,-1.938 6.239,-4.494 8.628,-7.463 0.11,-0.278 0.238,-0.547 0.342,-0.829 0.065,-0.177 0.243,-0.154 0.345,-0.05 0.418,-0.557 0.823,-1.123 1.205,-1.706 0.109,-0.499 0.229,-0.994 0.359,-1.487 -2.773,1.945 -5.497,3.957 -8.069,6.17 -1.735,1.492 -3.404,3.06 -4.999,4.702 -0.786,0.809 -1.554,1.636 -2.304,2.479 -0.114,0.128 -0.224,0.266 -0.336,0.402 1.672,-0.593 3.292,-1.327 4.829,-2.218 m 13.753,9.012 c -1.08,-3.424 -1.64,-7.012 -1.677,-10.515 -0.012,-1.145 0.048,-2.274 0.171,-3.388 -0.127,0.453 -0.256,0.906 -0.373,1.362 -0.129,0.506 -0.228,1.046 -0.335,1.586 0.106,3.738 0.857,7.465 2.214,10.955 m 3.966,7.233 c 1.407,1.895 3.073,3.697 4.956,5.167 -0.524,-1.096 -0.981,-2.229 -1.409,-3.336 -0.788,-2.041 -1.431,-4.137 -1.939,-6.265 -1.018,-4.268 -1.42,-8.683 -1.251,-13.066 0.344,-8.943 3.331,-17.666 8.364,-25.053 1.416,-2.079 3.002,-4.101 4.754,-5.962 -0.198,0.133 -0.401,0.259 -0.598,0.394 -0.43,0.292 -0.85,0.599 -1.277,0.897 -1.462,1.348 -2.904,2.719 -4.288,4.145 -3.291,3.39 -6.268,7.109 -8.418,11.334 -3.835,7.537 -4.488,16.342 -2.17,24.451 0.736,2.576 1.879,5.011 3.276,7.294 m 7.25,6.714 c 0.077,0.044 0.15,0.094 0.228,0.137 0.847,0.468 1.757,0.819 2.671,0.929 -0.548,-1.642 -0.848,-3.422 -1.121,-5.102 -0.341,-2.098 -0.562,-4.215 -0.675,-6.337 -0.225,-4.218 -0.053,-8.459 0.454,-12.652 0.552,-4.567 1.491,-9.083 2.652,-13.532 1.187,-4.55 2.439,-9.078 3.931,-13.539 0.764,-2.285 1.453,-4.641 2.441,-6.843 0.278,-0.619 0.596,-1.22 0.96,-1.787 -0.094,0.036 -0.188,0.074 -0.282,0.112 -0.515,0.481 -1.114,0.876 -1.726,1.247 -2.361,2.197 -4.561,4.538 -6.48,7.17 -2.606,3.572 -4.705,7.498 -6.209,11.656 -2.955,8.168 -3.456,17.027 -1.663,25.512 0.492,2.323 1.16,4.607 1.998,6.829 0.807,2.139 1.891,4.125 2.821,6.2 m 3.671,1.1 c 0.739,-0.032 1.469,-0.248 2.158,-0.731 1.657,-1.16 2.755,-3.069 3.835,-4.733 4.48,-6.899 7.998,-15.375 5.414,-23.552 -0.2,-0.305 -0.393,-0.612 -0.572,-0.923 -0.948,-1.646 -1.744,-3.371 -2.366,-5.167 -1.258,-3.629 -1.838,-7.457 -1.815,-11.293 0.025,-4.196 0.802,-8.315 2.189,-12.224 -0.239,0.399 -0.456,0.816 -0.653,1.251 -0.837,1.842 -1.45,3.795 -2.118,5.703 -1.503,4.295 -3.036,8.594 -4.275,12.974 -2.356,8.33 -3.806,17.111 -3.557,25.785 0.065,2.286 0.255,4.569 0.581,6.832 0.16,1.11 0.351,2.216 0.572,3.316 0.186,0.923 0.42,1.839 0.607,2.762 m 12.474,-30.59 c -0.584,-2.418 -1.084,-4.86 -1.52,-7.305 -0.64,-3.587 -1.092,-7.215 -1.153,-10.862 -0.057,-3.374 0.231,-6.778 0.962,-10.073 -1.104,2.887 -1.87,5.906 -2.199,9.026 -0.379,3.6 -0.199,7.253 0.583,10.79 0.632,2.862 1.677,5.882 3.279,8.427 0.016,-0.005 0.031,-0.001 0.048,-0.003 m 6.296,-43.502 c -2.079,1.021 -4.204,1.932 -6.361,2.686 -6.475,2.266 -13.529,3.145 -20.317,2.031 0.615,0.312 1.232,0.62 1.837,0.95 1.791,0.975 3.542,2.025 5.243,3.149 1.687,1.115 3.414,2.236 4.8,3.715 l 0.122,0.235 0.037,0.014 0.039,0.004 0.247,0.044 c 0.233,0.038 0.417,0.13 0.579,0.279 1.08,-0.465 2.176,-0.886 3.287,-1.253 0.781,-0.257 1.571,-0.475 2.368,-0.67 0.934,-1.887 2.008,-3.711 3.233,-5.44 1.458,-2.057 3.11,-3.962 4.886,-5.744 m -5.251,45.067 c 10e-4,0.002 0.003,0.004 0.004,0.006 0.163,0.203 0.34,0.402 0.524,0.596 -0.541,-7.666 0.292,-15.443 2.314,-22.848 2.128,-7.789 5.515,-15.237 10.101,-21.889 0.92,-1.336 1.89,-2.652 2.909,-3.93 -0.79,0.036 -1.575,0.146 -2.327,0.338 -1.284,0.327 -2.513,0.866 -3.684,1.478 -0.589,0.307 -1.155,0.657 -1.747,0.958 -0.07,0.035 -0.152,0.076 -0.23,0.116 -1.458,1.34 -2.841,2.761 -4.111,4.288 -1.129,1.357 -2.159,2.786 -3.097,4.267 -1.045,2.075 -1.847,4.274 -2.424,6.52 -1.688,6.574 -1.31,13.395 -0.228,20.037 0.55,3.378 1.336,6.707 1.996,10.063 m 1.943,1.753 c 0.873,0.522 1.863,0.778 2.926,0.465 1.788,-0.526 3.19,-2.125 4.464,-3.399 1.724,-1.725 3.367,-3.528 4.944,-5.386 -0.009,-0.033 -0.027,-0.058 -0.032,-0.096 -0.734,-6.214 -1.018,-12.434 -0.526,-18.68 0.491,-6.225 1.695,-12.354 3.511,-18.327 0.426,-1.4 0.901,-2.78 1.407,-4.148 -0.576,-0.138 -1.167,-0.215 -1.762,-0.244 -0.816,0.99 -1.615,1.995 -2.373,3.038 -2.353,3.242 -4.415,6.69 -6.166,10.293 -3.5,7.199 -5.721,15.017 -6.485,22.986 -0.432,4.497 -0.383,9.008 0.092,13.498 m 12.469,-19.028 c 0.074,3.202 0.321,6.408 0.816,9.575 0.807,-0.982 1.6,-1.975 2.367,-2.989 2.599,-3.44 4.928,-7.062 7.007,-10.825 -1.787,-4.019 -3.013,-8.262 -3.817,-12.585 -0.825,-4.439 -1.389,-8.947 -1.287,-13.47 -0.062,-0.022 -0.127,-0.037 -0.19,-0.058 -1.364,3.915 -2.487,7.905 -3.295,11.988 -1.194,6.037 -1.743,12.21 -1.601,18.364 m 6.569,-32.008 c 0.025,0.024 0.054,0.046 0.079,0.07 -0.02,-0.119 -0.041,-0.237 -0.056,-0.357 -0.009,0.095 -0.016,0.191 -0.023,0.287 m 0.083,-7.475 -0.043,0.034 c -0.022,0.08 -0.059,0.157 -0.093,0.235 0.003,-0.001 0.005,-0.002 0.008,-0.003 0.043,-0.089 0.087,-0.177 0.128,-0.266 m 8.871,23.981 c 0.248,-0.619 0.541,-1.181 0.859,-1.737 -0.12,-0.24 -0.249,-0.476 -0.394,-0.707 -0.028,-0.045 -0.035,-0.091 -0.053,-0.136 -1.333,-1.352 -2.627,-2.743 -3.851,-4.192 -1.472,-1.743 -3.009,-3.677 -4.098,-5.786 -0.186,0.171 -0.57,0.117 -0.581,-0.191 -0.013,-0.379 -0.089,-0.741 -0.207,-1.085 -0.106,0.027 -0.227,0.014 -0.351,-0.071 -0.121,-0.083 -0.251,-0.146 -0.376,-0.221 -0.047,1.825 -0.048,3.649 0.018,5.473 0.161,4.422 0.909,8.778 2.101,13.037 0.581,2.078 1.257,4.131 1.982,6.164 1.849,-3.414 3.503,-6.937 4.951,-10.548 m 5.668,0.042 c 6.867,5.911 15.058,10.332 24.011,12.02 4.526,0.853 9.175,1.009 13.734,0.312 C 11.62,57.104 12.66,56.933 13.6,56.58 9.609,56.255 5.659,55.436 1.803,54.37 -2.564,53.161 -6.825,51.58 -10.921,49.642 -19.12,45.764 -26.743,40.444 -33.182,34.05 c -2.365,-2.35 -5.175,-5.037 -6.692,-8.196 -0.536,3.348 1.609,6.782 3.595,9.337 2.746,3.532 5.862,6.802 9.251,9.72 m -3.848,8.585 c -2.04,4.637 -5.667,8.587 -6.684,13.655 -0.351,1.748 -0.382,3.503 0.062,5.175 2.377,-3.857 4.111,-8.178 5.364,-12.509 0.662,-2.293 1.155,-4.617 1.509,-6.963 -0.085,0.214 -0.16,0.435 -0.251,0.642 m -6.198,20.081 c 6.055,-5.632 9.203,-13.841 8.312,-22.093 -0.124,-1.144 -0.315,-2.284 -0.575,-3.406 -0.038,-0.165 -0.084,-0.328 -0.128,-0.492 -0.016,0.521 -0.066,1.043 -0.142,1.562 -0.239,3.67 -0.876,7.322 -1.839,10.861 -1.299,4.775 -3.291,9.216 -5.632,13.558 0.002,0.003 0.002,0.007 0.004,0.01 m 51.59,-17.434 c 0.415,-0.248 0.782,-0.555 1.075,-0.94 -0.023,-0.024 -0.039,-0.057 -0.058,-0.086 -0.726,-0.254 -1.434,-0.557 -2.145,-0.858 -1.154,-0.487 -2.304,-0.981 -3.45,-1.484 -2.293,-1.007 -4.583,-2.022 -6.87,-3.042 -4.51,-2.014 -9.024,-4.02 -13.531,-6.042 -7.578,-3.4 -15.176,-6.977 -21.904,-11.903 -1.562,-1.143 -3.067,-2.359 -4.489,-3.67 1.087,1.556 2.364,3.001 3.64,4.368 3.049,3.265 6.348,6.241 9.949,8.886 7.193,5.281 15.294,9.314 23.84,11.88 4.563,1.37 9.236,2.211 13.943,2.891 M -35.358,27.485 c 0.928,0.867 1.877,1.714 2.862,2.51 3.217,2.6 6.728,4.812 10.358,6.785 7.769,4.221 15.987,7.623 24.047,11.238 2.53,1.135 5.06,2.27 7.583,3.42 1.262,0.575 2.524,1.15 3.777,1.744 0.621,0.293 1.251,0.576 1.867,0.884 C 14.583,52.608 13.797,51.325 12.661,50.184 11.297,48.814 9.729,47.658 8.17,46.524 4.489,43.847 0.626,41.423 -3.385,39.271 -11.363,34.99 -19.879,31.78 -28.678,29.654 c -2.273,-0.55 -4.571,-1.136 -6.68,-2.169 m 51.401,24.751 c -2.391,-3.1 -4.815,-6.142 -7.62,-8.892 -2.961,-2.902 -6.23,-5.528 -9.66,-7.855 -6.9,-4.682 -14.628,-8.152 -22.741,-10.095 -4.562,-1.092 -9.237,-1.727 -13.925,-1.897 -0.028,-0.001 -0.047,-0.014 -0.073,-0.018 -0.347,0.049 -0.694,0.096 -1.041,0.143 0.525,0.628 1.061,1.247 1.618,1.847 0.664,0.523 1.37,1 2.176,1.397 2.135,1.051 4.464,1.61 6.768,2.151 4.368,1.025 8.662,2.239 12.874,3.792 8.453,3.117 16.472,7.397 23.809,12.622 2.881,2.052 6.473,4.513 7.931,7.93 0,-0.369 -0.038,-0.745 -0.116,-1.125 M 14.991,49.099 C 12.284,41.805 7.637,35.284 1.778,30.182 c -5.821,-5.069 -12.881,-8.829 -20.42,-10.56 -0.364,-0.083 -0.726,-0.171 -1.089,-0.258 -4.104,1.515 -8.407,2.497 -12.734,3.252 6.625,0.815 13.103,2.645 19.236,5.304 7.745,3.359 14.967,8.086 21.024,13.977 2.826,2.748 5.579,5.69 7.848,8.94 -0.218,-0.625 -0.46,-1.222 -0.652,-1.738 M -31.25,-52.21 c 0.345,0.651 0.669,1.315 0.954,2.001 -0.131,-2.147 -0.224,-4.276 -0.675,-6.411 -0.576,-2.73 -1.439,-5.383 -2.4,-7.999 -1.924,-5.238 -4.205,-10.384 -5.145,-15.921 -0.495,-2.922 -0.581,-5.926 0.003,-8.839 -0.013,-0.014 -0.024,-0.029 -0.036,-0.042 -1.631,-1.72 -3.89,-3.134 -6.174,-3.287 0.048,0.133 0.052,0.279 -0.018,0.42 -0.343,0.699 -0.799,1.328 -1.137,2.031 -0.337,0.704 -0.611,1.441 -0.803,2.197 -0.39,1.534 -0.503,3.136 -0.392,4.713 0.228,3.237 1.323,6.273 2.878,9.1 3.212,5.841 8.029,10.634 11.005,16.624 0.858,1.727 1.521,3.544 1.94,5.413 m -0.003,28.095 c 0.806,-0.966 1.625,-1.921 2.454,-2.868 1.658,-1.893 3.36,-3.748 5.106,-5.561 1.709,-1.774 3.443,-3.525 5.216,-5.236 0.192,-0.184 0.385,-0.373 0.576,-0.56 -1.934,1.449 -3.795,2.996 -5.566,4.65 -1.775,1.658 -3.492,3.387 -5.124,5.185 -1.28,1.409 -2.53,2.97 -3.257,4.747 -0.014,0.138 -0.026,0.276 -0.041,0.415 0.212,-0.258 0.423,-0.516 0.636,-0.772 m 3.319,-0.346 c 1.611,-1.127 3.145,-2.364 4.606,-3.68 2.888,-2.601 5.423,-5.583 7.525,-8.852 0.93,-1.446 1.759,-2.946 2.499,-4.493 -0.2,0.122 -0.391,0.259 -0.589,0.384 -1.284,1.28 -2.669,2.472 -3.961,3.732 -1.808,1.763 -3.573,3.567 -5.281,5.427 -1.671,1.82 -3.303,3.677 -4.891,5.571 -0.807,0.963 -1.604,1.936 -2.389,2.918 -0.275,0.344 -0.549,0.69 -0.822,1.035 1.104,-0.673 2.243,-1.302 3.303,-2.042 m -3.153,-15.805 c 0.009,-0.043 0.019,-0.086 0.028,-0.128 -0.01,-0.056 -0.023,-0.11 -0.033,-0.165 0,10e-4 -0.001,0.002 -0.002,0.003 0.002,0.097 0.006,0.193 0.007,0.29 m 16.249,-8.073 c 3.785,-2.767 7.258,-5.982 9.268,-10.296 1.969,-4.226 2.584,-9.108 1.57,-13.671 -0.447,-2.007 -1.391,-4.148 -3.062,-5.428 -0.994,-0.76 -2.159,-1.023 -3.308,-0.871 0.317,-0.003 0.645,0.167 0.726,0.562 1.321,6.452 -1.494,12.853 -5.189,18.004 -4.078,5.683 -9.399,10.438 -12.814,16.596 -0.383,0.691 -0.733,1.41 -1.062,2.14 -0.095,1.006 -0.301,1.996 -0.645,2.948 -0.23,0.635 -0.565,1.26 -0.915,1.858 -0.082,0.441 -0.166,0.881 -0.246,1.323 3.805,-5.552 10.324,-9.253 15.677,-13.165 m 2.646,-29.665 c -1.645,0.902 -2.907,2.441 -3.959,3.959 -1.432,2.066 -2.673,4.283 -3.843,6.507 -3.944,7.501 -6.713,15.553 -8.71,23.78 l 0.001,0.025 c 4.279,-8.297 12.852,-14.866 16.407,-23.543 1.376,-3.359 2.012,-6.996 1.277,-10.587 -0.075,-0.366 0.125,-0.6 0.392,-0.696 -0.534,0.1 -1.063,0.28 -1.565,0.555 m -18.344,13.03 c -0.453,-4.437 -1.089,-8.918 -2.3,-13.218 -0.987,-3.504 -2.404,-7.137 -4.689,-10.041 -1.455,10.74 5.28,20.397 7.484,30.613 -0.086,-2.458 -0.245,-4.912 -0.495,-7.354 M -48.711,-91.43 c -3.017,2.437 -3.68,6.816 -3.107,10.438 1.36,8.591 8.584,14.456 14.224,20.397 1.466,1.543 2.88,3.15 4.134,4.866 -1.636,-3.43 -3.993,-6.592 -6.237,-9.545 -4.031,-5.307 -8.304,-10.993 -8.785,-17.889 -0.124,-1.775 -0.009,-3.575 0.447,-5.298 0.381,-1.441 0.97,-3.046 1.99,-4.186 -0.917,0.149 -1.819,0.532 -2.666,1.217 m 3.249,48.899 c -2.862,-5.843 -6.418,-11.345 -10.591,-16.338 -4.445,-5.32 -9.581,-9.996 -14.528,-14.834 -2.747,-2.687 -5.451,-5.427 -7.946,-8.352 -1.089,-1.277 -2.164,-2.606 -3.179,-3.98 2.792,6.415 6.654,12.311 11.049,17.766 5.848,7.259 12.528,13.772 18.903,20.556 2.809,2.988 5.574,6.029 8.129,9.238 -0.58,-1.366 -1.184,-2.723 -1.837,-4.056 m -7.168,-18.945 c -2.677,-3.913 -5.82,-7.506 -9.377,-10.643 -3.688,-3.251 -7.853,-5.825 -11.92,-8.56 -1.294,-0.87 -2.577,-1.776 -3.823,-2.729 2.182,2.612 4.533,5.078 6.944,7.478 4.955,4.932 10.158,9.633 14.748,14.918 4.698,5.41 8.629,11.449 11.758,17.881 -1.761,-6.515 -4.497,-12.74 -8.33,-18.345 m -31.395,-27.203 c 0.045,1.079 0.106,2.158 0.224,3.235 0.265,2.395 0.704,4.771 1.312,7.103 1.203,4.608 3.037,9.083 5.446,13.192 2.438,4.159 5.45,7.999 8.967,11.299 3.739,3.509 8.004,6.183 12.484,8.637 2.734,1.498 5.491,2.961 8.108,4.658 1.109,0.719 2.183,1.491 3.218,2.313 -5.364,-6.332 -11.159,-12.257 -16.894,-18.264 -6.209,-6.503 -12.165,-13.193 -17.057,-20.763 -2.327,-3.601 -4.286,-7.408 -5.808,-11.41 m -2.405,51.463 c 0.941,-4.396 2.446,-8.654 4.384,-12.707 0.392,-0.818 0.815,-1.618 1.255,-2.409 -5.473,6.959 -8.126,15.924 -7.054,24.852 0.074,0.618 0.171,1.233 0.279,1.847 -0.094,-1.616 0.032,-3.282 0.155,-4.855 0.176,-2.262 0.506,-4.511 0.981,-6.728 m 2.241,8.392 c 0.976,-2.064 1.632,-4.261 2.11,-6.489 1.039,-4.85 1.236,-9.834 2.261,-14.687 0.235,-1.11 0.529,-2.206 0.875,-3.284 l -0.133,0.196 c -0.602,0.953 -1.179,1.925 -1.728,2.91 -1.064,1.913 -1.986,3.902 -2.76,5.949 -1.563,4.139 -2.551,8.48 -2.97,12.883 -0.119,1.25 -0.193,2.504 -0.222,3.759 -0.02,0.909 0.01,1.82 -0.013,2.729 1.014,-1.212 1.894,-2.514 2.58,-3.966 m -14.982,-35.978 c -1.064,-1.828 -2.266,-3.569 -3.534,-5.26 l -0.019,0.134 c -0.075,0.655 -0.095,1.327 -0.084,1.986 0.019,1.186 0.168,2.376 0.379,3.542 0.444,2.452 1.23,4.83 2.177,7.131 1.916,4.653 4.524,8.975 6.632,13.538 0.832,1.8 1.612,3.658 2.186,5.569 -0.571,-9.33 -3.01,-18.524 -7.737,-26.64 m -3.993,1.175 c -0.287,-1.349 -0.462,-2.711 -0.533,-4.087 -0.058,-1.129 -0.153,-2.43 0.09,-3.569 l -0.022,-0.029 c -2.474,4.746 -0.185,10.41 2.052,14.83 2.776,5.489 5.637,10.937 8.458,16.403 0.247,0.479 0.5,0.956 0.751,1.435 -0.484,-1.412 -1.017,-2.804 -1.637,-4.172 -1.063,-2.347 -2.274,-4.622 -3.476,-6.9 -2.34,-4.438 -4.63,-8.968 -5.683,-13.911 m -8.086,26.197 c -1.428,-0.547 -4.065,-1.63 -5.977,-1.272 8.897,4.709 17.239,10.489 25.122,16.725 1.384,1.095 2.733,2.228 4.064,3.383 -6.541,-7.625 -13.656,-15.178 -23.209,-18.836 m -7.724,-0.156 c 4.33,4.517 9.299,8.442 14.714,11.577 5.206,3.015 11.008,4.95 16.129,8.105 -3.202,-2.578 -6.447,-5.106 -9.787,-7.502 -4.264,-3.06 -8.762,-5.819 -13.283,-8.481 -2.442,-1.438 -4.929,-2.785 -7.42,-4.132 -0.129,0.127 -0.249,0.268 -0.353,0.433 m -12.521,155.464 c -0.168,0.444 -0.332,0.889 -0.482,1.338 -0.505,1.519 -0.942,3.059 -1.32,4.614 -0.726,2.979 -1.255,6.001 -1.734,9.028 -0.961,6.075 -1.581,12.261 -3.246,18.198 -0.886,3.162 -2.061,6.232 -3.66,9.101 4.708,-4.009 7.761,-9.554 8.768,-15.684 1.166,-7.108 0.099,-14.341 0.939,-21.473 0.229,-1.942 0.595,-3.871 1.158,-5.746 -0.145,0.205 -0.28,0.417 -0.423,0.624 m -8.119,20.465 c -0.768,3.84 -1.264,7.73 -1.623,11.629 -0.18,1.957 -0.328,3.918 -0.472,5.879 -0.029,0.391 -0.069,0.778 -0.103,1.167 4.74,-10.273 4.966,-21.914 7.536,-32.841 0.259,-1.1 0.555,-2.191 0.871,-3.277 -3.093,5.383 -4.994,11.369 -6.209,17.443 m -4.644,-6.758 c -2.997,6.06 -3.819,13.076 -2.152,19.642 0.606,2.389 1.59,4.72 2.867,6.861 0.008,-0.528 0.008,-1.055 0.036,-1.586 0.098,-1.793 0.213,-3.584 0.367,-5.373 0.299,-3.484 0.696,-6.961 1.284,-10.409 1.17,-6.851 3.156,-13.639 6.582,-19.72 0.313,-0.555 0.646,-1.093 0.979,-1.63 -4.092,3.369 -7.598,7.429 -9.963,12.215 m 38.316,-17.518 c -1.038,5.359 -1.768,10.775 -2.016,16.23 -0.21,4.595 -0.089,9.207 0.446,13.777 0.267,2.28 0.635,4.547 1.113,6.792 0.409,1.921 0.832,3.974 1.937,5.636 1.01,1.517 2.65,2.452 4.469,1.779 0.23,-0.085 0.444,-0.19 0.651,-0.304 -0.031,-1.298 0.064,-2.608 0.078,-3.904 0.017,-1.564 -0.003,-3.127 -0.058,-4.69 -0.109,-3.102 -0.351,-6.199 -0.7,-9.283 -0.692,-6.123 -1.79,-12.236 -3.436,-18.177 -0.467,-1.686 -0.972,-3.363 -1.514,-5.027 -0.27,-0.832 -0.55,-1.662 -0.839,-2.488 -0.04,-0.113 -0.087,-0.227 -0.131,-0.341 m -8.929,19.027 c -1.556,6.843 -1.1,14.199 3.475,19.827 1.57,1.931 3.529,3.524 5.68,4.786 -1.466,-2.087 -2.054,-5.074 -2.511,-7.331 -0.96,-4.737 -1.433,-9.566 -1.506,-14.396 -0.107,-7.052 0.622,-14.082 1.929,-21.006 -2.592,5.956 -5.621,11.764 -7.067,18.12 m 18.531,20.513 c 1.194,-4.297 1.121,-9.039 0.544,-13.425 -1.118,-8.504 -4.569,-16.418 -8.366,-24.042 0.451,1.457 0.875,2.923 1.27,4.397 0.804,2.998 1.523,6.02 2.117,9.067 1.196,6.143 1.875,12.365 2.078,18.619 0.056,1.725 0.075,3.453 0.067,5.179 -0.006,1.369 0.031,2.782 -0.088,4.16 1.223,-0.954 1.958,-2.444 2.378,-3.955 m 12.818,20.485 c 0.663,4.345 1.565,8.667 2.202,13.017 1.733,-7.86 2.596,-15.976 2.569,-24.015 -0.027,-8.506 -1.201,-17.065 -3.255,-25.315 -0.581,-2.338 -1.25,-4.655 -1.985,-6.949 -0.379,-1.181 -0.779,-2.347 -1.162,-3.519 0.197,1.857 0.299,3.723 0.306,5.59 0.016,4.363 -0.343,8.713 -0.555,13.069 -0.46,9.445 0.455,18.793 1.88,28.122 m 2.413,14.423 c 0.493,-1.157 0.968,-2.325 1.436,-3.486 0.664,-1.646 1.258,-3.321 1.78,-5.018 1.06,-3.443 1.799,-6.987 2.233,-10.563 0.856,-7.063 0.504,-14.279 -1.108,-21.212 -1.089,-4.681 -2.761,-9.177 -4.627,-13.596 0.111,0.427 0.22,0.853 0.328,1.277 1.069,4.184 1.895,8.438 2.419,12.725 1.04,8.518 1.082,17.246 0.103,25.771 -0.531,4.617 -1.453,9.168 -2.63,13.66 0.02,0.148 0.046,0.294 0.066,0.442 m -4.065,-77.931 c 0.763,2.38 1.562,4.747 2.421,7.094 1.693,4.625 3.632,9.127 6.004,13.446 2.346,4.273 5.216,8.269 8.715,11.677 3.569,3.474 7.643,6.362 11.579,9.395 3.52,2.712 7.172,5.653 9.816,9.294 -0.04,-0.873 -0.104,-1.746 -0.176,-2.603 -0.135,-1.627 -0.406,-3.242 -0.793,-4.828 -0.765,-3.135 -2.009,-6.161 -3.528,-9.004 -3.358,-6.286 -8.25,-11.611 -13.388,-16.484 -7.233,-6.859 -15.405,-13.287 -21.644,-21.156 0.327,1.057 0.656,2.115 0.994,3.169 m 38.96,42.651 c 0.45,1.718 0.773,3.468 0.933,5.237 0.075,0.839 0.089,1.655 0.054,2.468 0.193,-0.696 0.377,-1.395 0.525,-2.103 0.372,-1.776 0.601,-3.581 0.68,-5.394 0.159,-3.661 -0.315,-7.369 -1.532,-10.831 -2.339,-6.648 -7.199,-12.052 -12.611,-16.41 -7.769,-6.254 -17.296,-10.845 -25.108,-17.203 1.019,1.145 2.065,2.267 3.142,3.352 10.018,10.095 22.44,18.267 29.694,30.812 1.832,3.169 3.295,6.527 4.223,10.072 m -1.012,-51.685 c 3.633,3.858 7.463,7.566 10.625,11.836 3.064,4.138 5.314,8.757 6.374,13.811 0.581,2.775 0.79,5.617 0.648,8.448 -0.063,1.26 -0.188,2.531 -0.401,3.785 1.034,-1.867 1.707,-3.938 1.994,-6.055 0.471,-3.488 -0.206,-7.086 -1.472,-10.34 -2.793,-7.175 -8.375,-12.643 -13.86,-17.828 -1.393,-1.317 -2.785,-2.635 -4.179,-3.951 0.091,0.097 0.179,0.197 0.271,0.294 m 5.123,11.034 c 1.266,3.281 2.213,6.692 2.759,10.168 0.639,4.07 0.522,8.226 1.271,12.28 0.379,2.052 0.991,4.078 2.008,5.909 0.514,0.925 1.154,1.975 2.061,2.56 0.449,0.29 1.055,0.357 1.534,0.18 -0.249,-0.201 -0.354,-0.543 -0.065,-0.831 0.315,-0.314 0.613,-0.641 0.897,-0.981 0.386,-1.816 0.732,-3.637 0.876,-5.493 0.197,-2.539 0.085,-5.097 -0.303,-7.613 -0.8,-5.18 -2.911,-9.942 -5.946,-14.195 -2.816,-3.945 -6.203,-7.424 -9.529,-10.935 1.722,2.855 3.237,5.839 4.437,8.951 m 31.786,-41.786 c 2.37,1.126 4.946,1.834 7.576,1.908 0.447,0.013 1.505,0.044 2.189,-0.221 -0.041,0.018 -0.091,0.021 -0.146,-0.003 -4.213,-1.873 -8.08,-4.412 -11.802,-7.115 -3.755,-2.727 -7.266,-5.717 -10.401,-9.147 -0.655,-0.716 -1.276,-1.462 -1.899,-2.206 3.111,6.971 7.32,13.381 14.483,16.784 m 9.775,1.683 c 0.468,-0.184 0.758,-0.508 0.544,-1.08 -0.179,-0.478 -0.647,-0.848 -1.042,-1.143 -0.584,-0.434 -1.205,-0.825 -1.812,-1.226 -4.757,-3.143 -9.696,-6.01 -14.322,-9.349 -1.165,-0.84 -2.305,-1.717 -3.417,-2.626 0.846,0.923 1.708,1.833 2.587,2.724 3.203,3.245 6.74,6.113 10.608,8.527 2.215,1.382 4.532,2.619 6.852,3.816 0.163,0.084 0.125,0.294 0.002,0.357 m -24.242,5.289 -1.831,3.59 c -1.282,2.513 -2.563,5.025 -3.845,7.538 -1.221,2.394 -2.744,4.873 -3.113,7.579 -0.147,1.075 -0.084,2.173 0.221,3.216 0.152,0.519 0.37,1.026 0.666,1.48 0.106,0.162 0.219,0.318 0.329,0.475 0.17,-0.116 0.335,-0.265 0.491,-0.475 0.417,-0.559 0.68,-1.23 0.966,-1.861 0.39,-0.857 0.767,-1.72 1.135,-2.586 0.705,-1.655 1.362,-3.33 1.966,-5.024 1.211,-3.403 2.221,-6.891 2.94,-10.431 0.326,-1.602 0.562,-3.216 0.755,-4.835 -0.226,0.445 -0.453,0.889 -0.68,1.334 m -10.402,8.505 c -1.065,3.017 -1.419,6.286 -1.05,9.463 0.176,1.512 0.458,3.106 1.077,4.506 0.369,0.836 1.087,1.539 1.844,1.641 -0.71,-0.888 -1.058,-2.274 -1.158,-3.212 -0.208,-1.929 0.305,-3.855 1.034,-5.627 0.886,-2.155 2.005,-4.225 3.034,-6.315 l 3.08,-6.262 c 0.593,-1.204 1.185,-2.409 1.778,-3.613 0.392,-0.797 0.743,-1.673 1.17,-2.481 -4.976,2.411 -8.954,6.644 -10.809,11.9 M -20.673,74.96 c 0.692,2.897 1.477,5.774 2.372,8.615 1.494,4.748 3.591,10.08 8.142,12.687 2.091,1.198 4.731,1.632 6.856,0.385 -3.789,-3.21 -7.02,-7.042 -9.974,-11.015 -3.147,-4.233 -5.73,-8.909 -7.76,-13.774 -0.217,-0.52 -0.427,-1.046 -0.637,-1.573 0.311,1.562 0.631,3.123 1.001,4.675 M -2.774,96.32 C -0.5,94.595 -0.8,91.641 -1.915,89.323 -4.226,84.518 -9.079,81.45 -13.222,78.386 c -2.292,-1.695 -4.596,-3.555 -6.455,-5.737 0.712,1.666 1.466,3.313 2.309,4.916 2.427,4.614 5.363,8.96 8.799,12.883 1.816,2.075 3.777,3.993 5.784,5.878 z M 18.695,22.487 c -0.345,0.371 -0.761,0.593 -1.257,0.694 -0.9,0.181 -1.902,-0.298 -2.229,-1.175 -0.051,-0.138 -0.082,-0.282 -0.103,-0.429 -0.013,-0.064 -0.012,-0.131 -0.019,-0.196 -0.365,-0.204 -0.727,-0.41 -1.09,-0.6 C 12.873,20.194 11.721,19.663 10.545,19.189 8.241,18.26 5.853,17.554 3.416,17.074 3.009,16.994 2.601,16.93 2.193,16.862 c 1.94,1.001 3.717,2.239 5.387,3.712 1.099,0.97 2.143,2.01 3.101,3.119 0.465,0.539 0.969,1.097 1.399,1.698 0.556,-0.103 1.162,0.014 1.578,0.379 0.266,0.234 0.464,0.54 0.551,0.881 0.204,0.35 0.296,0.779 0.199,1.168 -0.134,0.541 -0.477,0.935 -0.956,1.206 -0.845,0.477 -1.937,0.209 -2.5,-0.569 -0.296,-0.409 -0.432,-0.888 -0.41,-1.39 0.018,-0.4 0.193,-0.76 0.45,-1.055 C 10.594,25.499 10.213,24.969 9.799,24.492 8.837,23.383 7.811,22.332 6.711,21.358 4.698,19.575 2.44,17.975 0.138,16.572 c -3.924,-0.449 -7.893,-0.341 -11.799,0.332 -1.602,0.277 -3.188,0.634 -4.753,1.069 -0.348,0.157 -0.692,0.324 -1.043,0.475 2.749,0.627 5.441,1.602 7.986,2.734 3.775,1.68 7.333,3.872 10.562,6.447 6.433,5.129 11.636,11.856 14.772,19.476 0.397,0.964 0.76,1.942 1.088,2.933 0.35,1.057 0.714,2.155 0.738,3.279 0.047,2.211 -1.358,3.784 -3.323,4.6 -2.021,0.84 -4.352,1.062 -6.513,1.231 -2.437,0.189 -4.895,0.159 -7.327,-0.073 -9.661,-0.919 -18.742,-5.036 -26.348,-10.971 -0.67,-0.523 -1.317,-1.076 -1.966,-1.627 0.013,0.035 0.025,0.069 0.037,0.104 0.105,0.018 0.197,0.076 0.204,0.22 0.009,0.18 0.046,0.351 0.07,0.527 0.275,0.749 0.561,1.501 0.85,2.252 0.709,0.782 1.276,1.724 1.914,2.562 0.245,0.32 0.506,0.627 0.755,0.943 0.191,0.186 0.383,0.373 0.574,0.551 2.221,2.072 4.639,3.922 7.139,5.643 4.969,3.419 10.257,6.345 15.264,9.707 0.867,0.582 1.945,1.32 2.122,2.441 0.181,1.148 -0.695,1.946 -1.722,2.218 -1.214,0.321 -2.616,0.192 -3.849,0.049 -1.318,-0.154 -2.622,-0.457 -3.88,-0.878 -5.307,-1.774 -9.79,-5.639 -13.041,-10.115 -0.817,-1.125 -1.56,-2.289 -2.266,-3.472 0.308,1.512 0.564,3.038 0.733,4.578 0.591,1.686 1.124,3.391 1.714,5.077 2.149,3.548 5.523,6.312 8.843,8.725 4.37,3.175 9.448,6.529 11.673,11.677 1.024,2.369 1.212,5.292 -0.678,7.29 -1.786,1.889 -4.522,2.378 -6.968,1.712 -5.373,-1.462 -8.43,-6.86 -10.213,-11.726 -1.16,-3.168 -2.051,-6.445 -2.886,-9.711 -0.411,-1.609 -0.807,-3.231 -1.17,-4.861 -0.011,0.318 -0.016,0.637 -0.032,0.955 0.041,0.147 0.041,0.3 -0.018,0.44 -0.152,2.645 -0.466,5.265 -0.929,7.811 -0.693,3.806 -1.712,7.539 -2.99,11.19 -0.637,1.819 -1.334,3.618 -2.088,5.392 -0.368,0.866 -0.752,1.725 -1.148,2.579 -0.324,0.698 -0.664,1.428 -1.185,2.005 -1.087,1.207 -2.742,1.337 -4.057,0.392 -1.288,-0.925 -1.757,-2.55 -2.127,-4.01 -0.86,-3.391 -0.879,-7.017 -0.098,-10.425 1.621,-7.07 6.734,-13.076 13.484,-15.749 0.186,-3.601 0.033,-7.217 -0.536,-10.797 -0.367,-2.309 -0.917,-4.574 -1.616,-6.788 -0.836,-1.703 -1.611,-3.436 -2.344,-5.192 0.036,0.227 0.077,0.461 0.109,0.68 0.313,2.123 0.375,4.285 0.19,6.422 -0.38,4.385 -1.838,8.613 -4.144,12.355 -1.313,2.132 -2.966,4.044 -4.812,5.73 -0.302,0.277 -0.71,0.049 -0.873,-0.239 -2.176,-3.83 -1.047,-8.542 0.755,-12.274 2.118,-4.39 5.375,-8.4 6.05,-13.36 0.219,-1.606 0.127,-3.232 -0.364,-4.748 -0.119,0.4 -0.236,0.799 -0.376,1.194 -0.374,1.057 -0.772,2.104 -1.198,3.142 -0.836,2.035 -1.746,4.04 -2.729,6.009 -1.974,3.957 -4.276,7.762 -6.818,11.38 -2.576,3.667 -5.43,7.138 -8.529,10.376 -2.541,2.654 -5.938,6.691 -10.049,4.717 -0.25,-0.12 -0.489,-0.256 -0.72,-0.403 0.317,0.837 0.649,1.669 1.039,2.486 1.098,2.304 2.405,4.502 3.84,6.611 1.157,1.701 2.412,3.329 3.708,4.923 0.439,0.305 0.806,0.679 1.155,1.09 1.341,1.116 2.581,2.403 3.849,3.57 1.63,1.5 3.262,2.997 4.897,4.492 3.031,2.771 6.024,5.625 8.659,8.782 4.622,5.538 8.253,12.492 7.705,19.901 -0.277,3.758 -1.499,7.372 -3.938,10.245 -0.135,0.385 -0.279,0.767 -0.441,1.142 -0.06,0.139 -0.182,0.207 -0.312,0.222 -0.566,0.509 -1.46,0.734 -2.219,0.516 -1.763,-0.505 -2.889,-2.531 -3.65,-4.064 -1.879,-3.789 -2.183,-8.1 -2.537,-12.244 -0.348,-4.073 -0.984,-8.054 -2.224,-11.958 -1.158,-3.647 -2.723,-7.167 -4.598,-10.501 -1.071,-1.904 -2.257,-3.746 -3.526,-5.525 -0.631,-0.886 -1.285,-1.755 -1.959,-2.609 -0.672,-0.85 -1.483,-1.66 -1.855,-2.69 -0.02,-0.055 -0.009,-0.114 -0.007,-0.172 -0.983,-1.231 -1.944,-2.481 -2.847,-3.774 -1.566,-2.243 -2.988,-4.591 -4.185,-7.053 -0.553,-1.138 -1.102,-2.331 -1.571,-3.554 0.239,1.513 0.308,3.056 0.238,4.562 -0.223,4.838 -2.06,9.476 -4.396,13.663 -1.164,2.087 -2.417,4.18 -3.851,6.094 -1.195,1.596 -2.762,3.059 -4.814,3.347 -2.265,0.317 -4.435,-0.818 -6.241,-2.06 -1.603,-1.103 -3.067,-2.385 -4.41,-3.793 -4.907,-5.145 -7.835,-12.067 -8.59,-19.121 -0.023,-0.013 -0.046,-0.025 -0.067,-0.042 0.012,0.821 0.048,1.644 0.139,2.471 0.36,3.3 1.225,6.525 2.504,9.587 0.608,1.455 1.312,2.858 2.086,4.22 3.332,4.693 7.824,8.562 12.471,11.878 11.827,8.439 26.981,15.128 32.722,29.52 1.459,3.656 2.094,7.59 2.024,11.519 -0.036,2.039 -0.277,4.075 -0.695,6.071 -0.364,1.744 -0.837,3.496 -1.58,5.12 l 0.1,0.164 c 0.163,0.296 -0.146,0.516 -0.417,0.47 -0.094,0.109 -0.241,0.145 -0.369,0.104 -0.313,0.081 -0.699,-0.128 -0.686,-0.563 0.006,-0.206 0.003,-0.416 0.004,-0.624 -1.326,-1.556 -2.706,-3.072 -4.193,-4.471 -1.796,-1.687 -3.72,-3.239 -5.667,-4.747 -3.93,-3.045 -8.036,-5.883 -11.693,-9.265 -7.297,-6.748 -12.107,-15.514 -15.653,-24.698 -1.019,-2.638 -1.931,-5.318 -2.799,-8.01 -0.428,-1.327 -0.845,-2.658 -1.255,-3.99 -0.415,-1.352 -0.938,-2.712 -1.074,-4.125 l 0.017,-0.244 -0.02,-0.031 c -1.637,-1.842 -3.133,-3.829 -4.402,-6.044 -0.77,-1.343 -1.44,-2.79 -1.998,-4.295 0.789,3.635 1.688,7.245 2.746,10.811 2.154,7.26 4.958,14.253 8.163,21.108 3.181,6.802 6.466,13.636 8.471,20.897 1.904,6.898 2.541,14.12 1.95,21.248 -0.331,3.991 -1.053,7.941 -2.138,11.795 -0.554,1.97 -1.201,3.912 -1.955,5.814 -0.37,0.932 -0.757,1.86 -1.182,2.768 -0.446,0.95 -1.014,1.83 -1.532,2.741 -0.322,0.567 -1.243,0.209 -0.954,-0.412 0.071,-0.154 0.133,-0.313 0.203,-0.468 -1.206,-4.326 -1.966,-8.793 -2.742,-13.214 -0.824,-4.69 -1.485,-9.41 -1.914,-14.153 -0.42,-4.644 -0.602,-9.31 -0.46,-13.972 0.133,-4.346 0.521,-8.68 0.625,-13.027 0.058,-2.444 0.019,-4.893 -0.215,-7.327 -0.116,-1.215 -0.283,-2.426 -0.511,-3.626 -0.227,-1.198 -0.646,-2.377 -0.717,-3.591 l 0.003,-0.023 c -1.932,-4.641 -3.714,-9.339 -5.207,-14.151 -2.206,-7.114 -3.925,-14.396 -4.856,-21.788 -0.317,0.9 -0.634,1.8 -0.941,2.703 -1.652,4.863 -3.254,9.742 -4.622,14.694 -0.766,2.776 -1.46,5.576 -2.082,8.393 4.426,8.659 8.855,17.482 10.607,27.134 0.843,4.64 1.043,9.444 0.267,14.109 -0.372,2.233 -0.984,4.592 -2.552,6.306 -1.313,1.435 -3.292,2.425 -5.272,2.061 -0.113,-0.021 -0.215,-0.057 -0.323,-0.084 l -0.179,0.012 c -6.793,-1.588 -12.054,-7.441 -13.766,-14.089 -1.951,-7.577 0.323,-15.47 3.239,-22.474 1.889,-4.537 4.083,-8.945 5.773,-13.564 0.141,-0.385 0.463,-0.499 0.772,-0.446 0.215,-0.925 0.434,-1.85 0.669,-2.771 1.314,-5.149 2.88,-10.231 4.588,-15.262 1.583,-4.661 3.249,-9.319 5.108,-13.882 -0.145,0.164 -0.303,0.315 -0.451,0.476 -4.646,10.791 -14.203,18.587 -22.648,26.467 -3.425,3.195 -6.784,6.512 -9.721,10.168 -0.039,0.092 -0.073,0.187 -0.111,0.28 0.167,0.291 0.158,0.658 -0.216,0.895 l -0.186,0.126 c -0.166,0.449 -0.319,0.905 -0.454,1.37 -0.501,1.737 -0.818,3.522 -1.02,5.317 -0.415,3.681 -0.354,7.388 -0.328,11.086 0.048,7.012 -0.257,14.096 -3.823,20.333 -1.6,2.799 -3.674,5.315 -6.119,7.413 -0.047,0.132 -0.17,0.231 -0.318,0.261 -0.218,0.181 -0.433,0.365 -0.656,0.539 -0.262,0.205 -0.545,0.174 -0.757,0.028 -0.249,-0.041 -0.464,-0.203 -0.465,-0.509 -0.002,-0.638 -0.007,-1.272 -0.011,-1.906 -3.729,-4.811 -5.26,-11.065 -4.963,-17.128 0.362,-7.375 3.654,-14.355 8.447,-19.888 2.466,-2.847 5.354,-5.34 8.493,-7.426 0.2,-0.262 0.409,-0.516 0.613,-0.774 0.031,-0.05 0.054,-0.103 0.086,-0.152 0.022,-0.033 0.05,-0.034 0.076,-0.053 6.545,-8.206 15.213,-14.535 22.579,-22.031 3.349,-3.407 6.508,-7.115 9.015,-11.205 -0.836,0.81 -1.842,1.484 -2.768,2.066 -1.876,1.176 -3.831,2.232 -5.806,3.229 -4.105,2.074 -8.362,3.827 -12.733,5.255 -1.726,0.565 -3.47,1.068 -5.223,1.536 -0.204,0.511 -0.702,0.746 -1.169,0.993 -0.488,0.259 -0.987,0.497 -1.498,0.707 -0.558,0.23 -1.128,0.429 -1.705,0.606 -0.599,0.441 -1.259,0.794 -1.909,1.169 -0.858,0.493 -1.719,0.979 -2.593,1.444 -1.764,0.938 -3.565,1.807 -5.397,2.604 -3.637,1.581 -7.417,2.863 -11.274,3.786 -1.325,0.317 -2.656,0.562 -3.992,0.78 -0.01,0.601 -0.358,1.152 -0.864,1.466 -0.103,0.135 -0.219,0.262 -0.358,0.366 -0.494,0.37 -1.115,0.435 -1.691,0.238 -0.537,-0.183 -0.98,-0.632 -1.207,-1.145 -0.485,-1.098 0.217,-2.399 1.316,-2.776 0.561,-0.192 1.193,-0.178 1.718,0.117 0.457,0.257 0.802,0.635 0.981,1.112 2.948,-0.714 5.872,-1.623 8.716,-2.617 3.701,-1.292 7.32,-2.85 10.791,-4.67 0.69,-0.362 1.367,-0.747 2.045,-1.13 -0.439,0.041 -0.879,0.081 -1.322,0.089 -1.055,0.018 -2.379,0.034 -3.327,-0.49 -0.052,-0.028 -0.094,-0.076 -0.129,-0.129 -2.912,0.364 -5.841,0.607 -8.782,0.692 -2.548,0.074 -5.099,0.045 -7.644,-0.087 -1.969,-0.103 -4.034,-0.19 -5.996,-0.589 -0.128,0.388 -0.357,0.74 -0.686,0.96 -0.269,0.18 -0.576,0.29 -0.895,0.306 -0.235,0.06 -0.477,0.093 -0.719,0.076 -0.722,-0.051 -1.372,-0.614 -1.588,-1.295 -0.112,-0.353 -0.161,-0.726 -0.094,-1.095 0.064,-0.35 0.211,-0.71 0.458,-0.972 0.176,-0.188 0.341,-0.311 0.565,-0.435 0.164,-0.091 0.339,-0.137 0.521,-0.181 0.297,-0.071 0.633,-0.065 0.929,0.01 0.359,0.091 0.708,0.237 0.979,0.498 0.31,0.298 0.499,0.645 0.593,1.061 1.676,0.073 3.356,0.304 5.023,0.41 2.26,0.145 4.521,0.23 6.786,0.218 3.088,-0.018 6.175,-0.199 9.247,-0.521 -4.575,-2.093 -9.329,-3.83 -14.186,-5.14 -0.203,0.292 -0.479,0.536 -0.805,0.695 -0.699,0.34 -1.542,0.112 -2.039,-0.444 -0.168,-0.077 -0.326,-0.18 -0.461,-0.312 -0.316,-0.309 -0.552,-0.698 -0.586,-1.149 -0.033,-0.443 0.088,-0.864 0.357,-1.219 0.462,-0.61 1.306,-0.901 2.051,-0.774 0.895,0.154 1.578,0.848 1.787,1.717 0.073,0.301 0.056,0.6 -0.02,0.882 5.641,1.258 11.128,3.052 16.401,5.444 0.52,-0.068 1.041,-0.127 1.559,-0.204 8.856,-1.317 17.457,-3.873 25.585,-7.632 0.199,-0.092 0.393,-0.195 0.591,-0.289 -5.684,1.905 -11.907,2.217 -17.766,0.875 -2.226,-0.509 -4.404,-1.237 -6.473,-2.206 -2.04,-0.955 -4.356,-2.1 -5.689,-3.987 -2.628,-3.722 -0.145,-8.501 2.184,-11.667 5.367,-7.296 13.536,-12.077 22.09,-14.699 -7.174,-0.841 -14.019,-3.538 -20.011,-7.58 -2.596,-1.752 -6.128,-4.039 -6.315,-7.523 -0.192,-3.571 2.667,-6.268 5.738,-7.515 3.269,-1.327 6.982,-1.846 10.465,-2.262 3.604,-0.432 7.241,-0.572 10.868,-0.452 5.95,0.197 11.866,1.153 17.59,2.783 -0.284,-0.194 -0.568,-0.385 -0.845,-0.589 -2.788,-2.058 -5.335,-4.887 -5.988,-8.394 -0.761,-4.09 1.544,-7.95 3.926,-11.069 2.266,-2.967 4.997,-5.628 8.123,-7.679 5.79,-3.8 13.114,-5.411 19.809,-3.467 -3.367,-1.952 -6.833,-3.74 -10.371,-5.374 -0.48,0.014 -1,-0.068 -1.425,-0.079 -0.766,-0.019 -1.533,-0.018 -2.299,-10e-4 -1.531,0.035 -3.064,0.127 -4.588,0.282 -3.033,0.309 -6.065,0.844 -9.018,1.603 -0.336,0.086 -0.482,-0.479 -0.155,-0.592 2.98,-1.029 6.021,-1.77 9.148,-2.187 1.558,-0.207 3.121,-0.339 4.692,-0.392 0.193,-0.007 0.385,-0.003 0.578,-0.007 -3.316,-1.428 -6.688,-2.721 -10.101,-3.868 -2.686,-0.902 -5.393,-1.735 -8.132,-2.464 -0.279,-0.074 -0.228,-0.519 0.068,-0.456 3.526,0.76 7.009,1.691 10.44,2.779 -0.03,-0.037 -0.06,-0.074 -0.09,-0.11 -0.387,-0.474 -0.772,-0.949 -1.158,-1.423 -0.771,-0.952 -1.489,-1.937 -2.201,-2.933 -0.235,-0.329 0.217,-0.837 0.529,-0.523 0.879,0.883 1.749,1.767 2.572,2.702 0.405,0.46 0.81,0.919 1.214,1.38 0.201,0.231 0.403,0.461 0.605,0.692 0.231,0.264 0.473,0.501 0.467,0.858 2.947,0.994 5.854,2.101 8.708,3.34 0.376,0.021 0.738,0.091 1.041,0.296 0.102,0.069 0.157,0.157 0.187,0.252 2.008,0.901 3.996,1.852 5.95,2.876 1.023,0.535 2.033,1.097 3.04,1.662 -1.505,-1.499 -3.006,-3 -4.469,-4.541 -2.309,-2.432 -4.537,-4.971 -6.516,-7.687 -3.505,-3.44 -8.018,-5.661 -12.528,-7.659 -3.002,-1.329 -5.99,-2.675 -8.848,-4.297 -2.738,-1.554 -5.37,-3.291 -7.868,-5.206 -2.79,-2.139 -5.397,-4.498 -7.829,-7.035 -0.161,-0.168 -0.166,-0.47 -0.081,-0.67 0.289,-0.68 0.709,-1.181 1.213,-1.541 l 0.25,-0.158 c 1.476,-0.88 3.549,-0.709 5.22,-0.244 2.877,0.802 5.626,2.011 8.208,3.505 5.221,3.02 9.697,7.085 13.793,11.478 1.451,1.557 2.855,3.155 4.247,4.765 -1.7,-3.705 -2.687,-7.669 -2.961,-11.757 -1.285,-2.387 -2.492,-4.821 -3.729,-7.229 -1.47,-2.861 -2.94,-5.721 -4.41,-8.581 -1.461,-2.845 -2.945,-5.679 -4.381,-8.537 -1.278,-2.546 -2.468,-5.198 -2.929,-8.031 -0.498,-3.061 -0.089,-6.268 1.639,-8.889 0.255,-0.386 0.833,-0.306 1.092,0.012 6.846,8.409 11.25,18.804 12.4,29.595 0.284,2.667 0.308,5.335 0.123,8.004 l 0.1,0.194 c 0.032,-4.113 0.513,-8.216 0.936,-12.304 0.298,-2.885 0.564,-5.778 0.601,-8.68 0.038,-2.906 -0.306,-5.749 -0.514,-8.639 -0.028,-0.39 0.541,-0.583 0.689,-0.184 0.868,2.343 1.032,4.915 1.092,7.392 0.06,2.502 -0.106,5.009 -0.329,7.5 -0.453,5.077 -1.222,10.142 -1.272,15.247 -0.007,0.705 0.008,1.407 0.037,2.106 l 0.114,0.235 c 0.149,-6.531 2.148,-13.01 5.851,-18.546 1.844,-2.757 4.092,-5.219 6.641,-7.34 0.463,-0.384 1.272,0.199 0.958,0.753 -5.056,8.908 -2.854,19.828 -6.963,29.076 -0.996,2.244 -2.366,4.378 -4.217,6.011 0.299,1.172 0.666,2.325 1.082,3.461 1.133,2.258 2.47,4.395 3.951,6.432 0.32,0.395 0.627,0.8 0.911,1.224 1.09,1.418 2.239,2.791 3.434,4.123 2.189,2.441 4.515,4.757 6.826,7.083 0.373,0.375 0.754,0.75 1.133,1.125 0.096,0.057 0.193,0.113 0.288,0.17 -4.65,-8.405 -6.842,-18.13 -6.151,-27.722 0.166,-2.297 0.545,-4.668 1.581,-6.748 -0.096,-0.425 0.171,-0.768 0.498,-0.889 1.209,-1.93 3.061,-3.301 5.26,-3.905 4.517,-1.242 9.363,0.392 13.282,2.643 8.673,4.983 14.383,13.938 17.767,23.163 -0.366,-3.907 -0.992,-7.8 -1.85,-11.584 -0.77,-3.399 -1.757,-6.747 -2.939,-10.024 -0.922,-0.859 -1.799,-1.762 -2.769,-2.573 -1.039,-0.868 -2.133,-1.669 -3.257,-2.422 -2.352,-1.574 -4.836,-2.935 -7.314,-4.297 -4.6,-2.529 -9.085,-5.159 -12.998,-8.693 -7.203,-6.508 -12.582,-15.145 -15.18,-24.506 -0.721,-2.6 -1.253,-5.25 -1.558,-7.932 -0.25,-2.193 -0.375,-4.434 -0.246,-6.649 -0.207,-0.318 -0.426,-0.626 -0.618,-0.957 -0.488,-0.838 0.654,-1.743 1.196,-1.025 0.217,-0.004 0.429,0.121 0.437,0.385 l 0.007,0.279 0.069,0.108 0.167,0.162 c 0.286,0.445 0.574,0.885 0.861,1.327 2.444,3.253 5.665,5.829 9.011,8.151 4.097,2.843 8.382,5.41 12.178,8.663 7.284,6.243 12.987,14.314 16.512,23.232 1.599,4.043 2.727,8.261 3.281,12.566 0.427,1.046 0.841,2.097 1.227,3.16 0.109,0.138 0.227,0.27 0.328,0.415 0.148,0.212 0.143,0.455 0.055,0.662 0.884,2.544 1.654,5.128 2.293,7.745 0.868,3.561 1.513,7.192 1.86,10.841 0.195,2.044 0.284,4.082 0.302,6.122 0.172,0.577 0.336,1.158 0.488,1.743 0.127,-0.701 0.255,-1.402 0.381,-2.102 0.394,-6.113 0.998,-12.225 1.87,-18.288 -0.109,-0.141 -0.166,-0.327 -0.122,-0.56 0.129,-0.675 0.302,-1.321 0.5,-1.951 0.157,-1.012 0.335,-2.019 0.504,-3.028 0.097,-3.254 0.08,-6.512 -0.062,-9.764 -0.075,-1.726 -0.21,-3.45 -0.357,-5.171 -0.118,-1.381 -0.339,-2.787 -0.439,-4.181 -1.499,-2.532 -3.407,-4.814 -5.439,-6.968 -5.874,-6.228 -12.97,-12.21 -14.483,-21.127 -0.645,-3.798 -0.015,-8.18 2.718,-11.077 1.286,-1.363 2.985,-2.301 4.878,-2.425 1.973,-0.129 3.859,0.569 5.492,1.635 3.546,2.315 5.774,6.268 7.277,10.123 1.636,4.196 2.466,8.662 3.064,13.109 0.895,6.656 1.2,13.421 0.835,20.14 1.701,-5.966 3.843,-11.802 6.609,-17.361 1.176,-2.365 2.464,-4.674 3.86,-6.917 1.106,-1.778 2.309,-3.508 3.913,-4.878 1.455,-1.243 3.256,-2.084 5.203,-1.95 2.146,0.147 3.937,1.559 5.074,3.313 2.521,3.888 2.704,9.189 1.814,13.61 -0.959,4.767 -3.378,8.975 -6.852,12.352 -6.826,6.636 -17.303,10.189 -21.476,19.304 -0.215,0.47 -0.394,0.952 -0.56,1.439 -0.082,1.414 -0.193,2.826 -0.32,4.238 0.242,-0.406 0.503,-0.8 0.78,-1.182 1.183,-1.634 2.62,-3.089 4.025,-4.532 2.767,-2.842 5.701,-5.534 8.882,-7.908 1.779,-1.328 3.638,-2.546 5.573,-3.635 0.39,-0.219 0.801,0.289 0.641,0.652 -3.226,7.307 -8.287,13.856 -14.719,18.618 -0.907,0.671 -1.84,1.309 -2.796,1.909 -0.959,0.603 -1.935,1.238 -3.007,1.617 -0.211,1.579 -0.441,3.155 -0.715,4.723 -0.083,0.478 -0.176,0.953 -0.264,1.43 -0.271,2.913 -0.538,5.825 -0.869,8.732 -0.026,0.225 -0.053,0.45 -0.079,0.675 0.448,-0.72 0.914,-1.43 1.395,-2.124 1.227,-1.769 2.554,-3.461 3.99,-5.066 2.836,-3.173 6.017,-6.044 9.471,-8.53 3.452,-2.484 7.191,-4.598 11.112,-6.245 3.871,-1.626 8.883,-2.703 12.063,0.832 2.438,2.71 2.584,6.857 2.227,10.289 -0.447,4.309 -1.496,8.584 -3.081,12.614 -3.056,7.773 -8.305,14.664 -15.483,19.017 5.958,-1.301 12.235,-1.115 18.166,0.373 1.559,-0.647 3.131,-1.247 4.719,-1.813 -0.093,-0.265 -0.152,-0.542 -0.131,-0.829 0.034,-0.448 0.284,-0.876 0.628,-1.156 0.289,-0.237 0.687,-0.382 1.058,-0.403 0.842,-0.047 1.653,0.334 2.034,1.108 0.092,0.187 0.147,0.41 0.155,0.618 0.011,0.3 -0.023,0.569 -0.132,0.851 -0.105,0.273 -0.287,0.501 -0.504,0.692 -0.112,0.099 -0.241,0.172 -0.378,0.228 -0.089,0.059 -0.181,0.112 -0.277,0.154 -0.42,0.183 -0.917,0.168 -1.334,-0.015 -0.114,-0.05 -0.207,-0.13 -0.309,-0.198 -1.322,0.423 -2.653,0.814 -3.991,1.181 0.974,0.284 1.941,0.594 2.89,0.949 1.374,0.515 2.721,1.105 4.029,1.771 0.417,0.213 0.856,0.438 1.29,0.677 0.132,-0.221 0.286,-0.427 0.496,-0.588 0.409,-0.313 0.937,-0.467 1.45,-0.395 0.506,0.072 0.943,0.358 1.271,0.739 0.282,0.328 0.483,0.796 0.501,1.23 0.02,0.495 -0.107,1.009 -0.452,1.382"
           style="fill:#605c7e;fill-opacity:1;fill-rule:nonzero;stroke:none;stroke-opacity:1"
           id="path9024" />
      </g>
    </g>
  </g>
</svg>
